<svg xmlns="http://www.w3.org/2000/svg" width="300" height="90" viewBox="0 0 300 90"><g fill-opacity=".9" font-weight="400" font-family="Boon" letter-spacing="0" word-spacing="0"><path d="M43.742 19.958q.817 0 1.394.432.577.385.577.962 0 .048-.048.144v.096q-.77 3.893-1.202 13.121-.385 9.229-.625 16.775-.192 7.546-.384 8.074-1.202 1.634-2.548 1.634-.961 0-1.634-1.009-.673-1.057-2.307-4.47-1.586-3.412-3.797-8.315-2.21-4.95-3.22-7.065-.817 1.922-2.644 6.44-1.778 4.47-3.172 7.787-1.394 3.316-2.21 4.854-.097.144-.241.433-.144.288-.24.432-1.73.817-2.98.817t-1.25-1.057q0-6.296-.433-12.545-.384-6.296-.865-9.853-.48-3.556-.817-4.325-.096-.29-.096-.433 0-1.154 1.634-1.73.433-.145.913-.145 1.49 0 1.875.962 1.298 3.076 2.019 19.514 1.105-2.644 2.595-6.489 1.538-3.893 2.5-6.392 1.009-2.5 1.345-3.028.865-1.49 2.019-1.49.48 0 .961.288.529.24.817.48l.24.289q.337.529 1.49 3.172 1.154 2.596 2.884 6.585 1.779 3.99 3.076 6.68.625-23.358 1.875-29.991.144-.673.865-1.153.72-.481 1.634-.481zm9.425 20.619q-1.49-.336-1.49-1.442 0-.192.192-.673 1.73-3.172 4.71-5.239 3.028-2.066 6.585-2.45 1.058-.097 1.538-.097 5.48 0 8.94 4.134 3.46 4.133 3.46 11.294 0 6.585-3.46 10.623-3.46 4.037-8.892 4.614-1.057.096-1.586.096-4.614 0-7.786-2.596-3.172-2.643-3.172-6.729 0-2.547 1.538-4.23.865-.864 1.874-1.297 1.394-.577 2.836-.577 2.115 0 4.278 1.01.913.384.913 1.25 0 .576-.48 1.057-.77.865-2.26.865-.625 0-1.057-.192-1.202-.53-2.115-.53h-.144q-.096.049-.24.29-.145.192-.289.72-.144.529-.144 1.154 0 2.98 2.115 4.662 2.163 1.682 4.902 1.682.529 0 .817-.048 1.298-.144 2.5-.769 1.25-.625 2.45-1.826 1.202-1.25 1.923-3.509.77-2.259.77-5.239 0-3.316-.818-5.864-.817-2.547-2.163-3.893-1.345-1.394-2.787-2.019-1.394-.672-2.836-.672-.144 0-.336.048h-.289q-4.277.48-6.873 5.143-.288.576-1.01.96-.72.337-1.537.337-.385 0-.577-.048zm31.348 19.706v-22.35q0-2.98-.673-3.989-.288-.384-.288-.769 0-.913 1.009-1.49.625-.384 1.538-.384 1.01 0 1.538.529 1.298 1.297 1.298 5.623 0 4.614.048 10.382.048 5.72.048 7.065 1.586-2.115 2.98-3.509 4.133-4.133 7.257-5.335.24-5.623.866-12.544.096-.673.769-1.202.72-.528 1.586-.577h.144q.817 0 1.346.433.576.385.576.961v.096q-.24 2.356-.672 6.345-.433 3.941-.577 5.72h.577q2.643 0 4.325 1.393 1.682 1.346 2.211 3.124.577 1.779.577 3.942 0 1.153-.24 2.259-.53 2.595-2.5 4.23-1.97 1.585-4.566 1.585-1.442 0-2.403-.577-.961-.528-1.442-1.682-.432-1.153-.625-2.451-.144-1.346-.144-3.316 0-2.5.048-4.038-2.115 1.01-4.037 2.932-2.788 2.788-6.2 7.498-.962 1.298-2.163 1.298-.433 0-1.01-.289-.528-.288-.865-.576l-.336-.337zm18.408-6.969q0 2.403.337 3.797.336 1.394.576 1.634.289.24.53.24.288 0 .672-.144.385-.144.913-.865.577-.769.817-1.97.145-.818.145-1.779 0-5.623-3.22-5.623h-.578q-.192 2.451-.192 4.71zm37.265 7.786q-.24.048-.673.048-1.635 0-1.875-1.105-.288-1.202-.288-6.68 0-2.452.048-7.787.096-5.335.096-7.402v-.961q-3.797 2.451-5.672 3.076-1.057.432-1.922.432-1.25 0-1.25-1.153 0-.144.096-.721.145-.673.145-1.202 0-1.634-.962-2.499-.913-.865-1.97-.865h-.24q-.625.048-1.443.625-.817.528-1.826 1.73-.961 1.202-1.634 3.605-.625 2.403-.625 5.623 0 2.884.48 5.191.53 2.307 1.202 3.653.721 1.298 1.586 2.163.866.865 1.442 1.153.625.289 1.058.289h.048q.096 0 .24-.048.144-.049.385-.24.24-.193.432-.481.192-.337.337-.866.144-.528.144-1.201 0-.625.625-1.154.673-.576 1.586-.673h.336q.817 0 1.346.385.529.384.529.961 0 2.451-1.586 4.326-1.586 1.874-4.422 2.163-.289.048-.913.048-4.182 0-6.73-4.037-2.547-4.038-2.547-11.151 0-6.73 2.692-10.718 2.74-4.038 7.257-4.518.337-.048 1.01-.048 2.643 0 4.277 1.634 1.635 1.634 1.635 3.797 2.21-1.298 5.527-3.845 1.201-.962 2.067-.962.576 0 .96.385.433.384.53.769l.096.433v.288q.048.192.048.336.096 2.115.096 4.855 0 2.115-.048 7.113-.048 4.999-.048 7.162 0 5.094.192 6.056v.144q.048.048.048.096 0 .577-.577 1.105-.528.481-1.345.673zm-5.336-34.798q-.432.192-1.105.192-1.298 0-1.682-.769-.721-1.297-.721-2.643 0-2.788 3.172-4.037.769-.289 2.74-.914 1.97-.673 2.643-.96.77-.29 1.01-1.01.528-1.394 2.114-1.394h.24q1.394.144 1.394 1.202 0 .192-.096.48-.673 2.067-3.316 3.317l-5.191 1.97q-.529.24-.529.817 0 .625.577 1.634.144.193.144.53 0 1.105-1.394 1.585z" style="line-height:125%;-inkscape-font-specification:'Boon, Normal';text-align:start" fill="#1a1a1a"/><path d="M173.34 31.397h.241q.865 0 1.442.433.625.432.625 1.057v.048q-.24 7.017-.24 15.332v5.287q0 .962-.096 1.442-.625 3.172-3.942 4.999-3.268 1.778-8.026 1.778-12.112 0-12.112-5.815 0-2.788.096-8.364.096-5.575.096-7.978 0-1.538-.192-2.836-.193-1.298-.385-1.922-.192-.625-.384-.77-.433-.432-.433-.913 0-.913.961-1.49.77-.48 1.779-.48t1.538.48q1.201 1.01 1.49 2.74.336 1.682.336 4.71 0 2.5-.096 8.075-.096 5.527-.096 8.267 0 1.538 1.73 2.21 1.73.626 6.345.626 3.268 0 4.758-.817 1.49-.818 1.826-2.5.096-.576.096-.961v-5.287q0-8.315.24-15.428.049-.721.722-1.298.72-.577 1.682-.625zm-6.384 36.913q-.385-.385-.385-.817 0-.817.962-1.394 2.355-1.346 4.422-1.346.624 0 1.297.144 1.202.289 1.827 1.154.624.865.624 1.922 0 .817-.048 2.115-.048 1.346-.048 1.923 0 1.105.144 2.066v.145q0 .576-.528 1.057-.577.529-1.394.673-.192.048-.48.048-.722 0-1.25-.336-.529-.337-.577-.817-.144-1.106-.144-3.365v-3.028q0-.529-.096-.625-.625.096-1.346.577-.577.384-1.49.384-1.01 0-1.49-.48zm54.937-3.46q1.105.288 1.105 1.249 0 .432-.24.72-1.97 2.837-4.855 4.327-2.884 1.49-5.863 1.49h-.53q-2.835-.145-4.71-1.587-1.874-1.393-1.874-3.508 0-.721.192-1.346.193-.577.914-1.01.72-.432 1.538-.432h.096q.72.048 1.153.385.48.384.48.913 0 .24-.047.336-.096.48-.096.673 0 1.01.913 1.682.961.673 2.355.77h.336q3.605 0 6.249-3.75.72-1.009 2.21-1.009.289 0 .674.096zm-2.211-33.405h.336q.865 0 1.442.433.577.384.577 1.009 0 4.278.24 10.862.24 6.537.24 10.286 0 .817-.096 1.202-.576 2.883-3.653 4.614-3.028 1.682-6.632 1.682-3.701 0-6.489-1.923-2.74-1.97-2.74-5.046v-.048l.145-9.036q.096-6.008.096-7.066 0-4.037-4.855-4.037-5.19 0-8.891 1.153.432 1.635.432 3.605 0 2.644-.48 7.979-.481 5.287-.481 7.402 0 2.018.529 2.74.576.72 1.826.72h.096q.096 0 1.346-.432.432-.193 1.105-.193 1.49 0 1.971.914.144.288.144.528 0 1.25-1.586 1.827-2.355.817-3.749.817-6.392 0-6.392-6.44 0-2.5.48-7.787.48-5.335.48-7.594 0-1.154-.287-2.355-.289-1.25-.433-1.442-.288-.385-.288-.721 0-1.058 1.345-1.682 2.404-1.106 6.104-1.779 3.75-.72 7.402-.72 3.797 0 6.345 1.826 2.547 1.778 2.547 5.19 0 1.106-.096 7.114l-.144 8.988v.048q0 1.73 1.586 2.884 1.634 1.105 3.605 1.105 2.018 0 3.316-.72 1.298-.722 1.586-2.115.096-.385.096-.721 0-3.653-.24-10.19-.24-6.585-.24-10.958 0-.673.672-1.25.721-.577 1.683-.673zm9.931 8.363q-1.202-.384-1.202-1.394 0-.432.289-.865 2.066-2.884 5.094-4.71 3.076-1.875 6.489-2.211 1.057-.096 1.538-.096 4.95 0 7.978 3.364 3.028 3.365 3.028 9.325 0 3.508-.96 6.68-.962 3.173-2.452 5.24-1.442 2.066-2.595 3.316-1.154 1.201-2.115 1.826-1.01.77-2.067.77-1.202 0-1.682-1.25 0-.048-.913-2.98-.914-2.98-2.02-5.335-1.057-2.356-2.066-2.74l-.288.192q-.817.577-1.875.577-.913 0-1.49-.433-.528-.384-.528-1.057 0-.865.817-1.394 1.874-1.298 3.797-1.346h.192q1.826 0 3.028 1.106.961.865 1.923 3.124.96 2.21 1.297 3.413.337 1.153 1.01 3.508 1.201-1.586 2.018-2.884.817-1.345 1.586-4.037.817-2.74.817-5.816 0-5.094-2.21-7.401-2.163-2.308-5.047-2.308-.096 0-.337.049h-.384q-1.875.192-3.893 1.441-2.019 1.202-3.557 3.317-.769 1.105-2.451 1.105-.529 0-.77-.096zm43.659 13.506h.337q.865 0 1.442.433.577.384.577 1.009 0 2.403-1.586 4.422-1.587 1.97-4.518 2.355-.77.096-1.154.096-4.037 0-6.44-4.037-2.404-4.086-2.788-11.632 0-.24-.048-.673v-.624q.048-5.912 3.556-9.565 3.557-3.701 8.892-4.23 1.058-.096 1.634-.096 4.903 0 8.363 2.692Q285 36.107 285 40.433v.144q-.048 4.422-.192 9.469-.096 5.046-.096 6.584 0 1.779.048 2.644v.048q0 .673-.673 1.25-.673.576-1.634.673h-.385q-.817 0-1.394-.385-.576-.384-.624-1.01-.049-.913-.049-2.739 0-1.586.097-6.585.144-5.046.192-9.468v-.096q0-3.124-2.403-4.903-2.404-1.826-5.528-1.826-.576 0-.865.048-3.028.288-5.335 2.643-2.259 2.356-2.307 7.258v1.105q.144 3.173.721 5.672.625 2.451 1.298 3.749t1.442 2.163q.817.817 1.297 1.057.481.192.721.192.144 0 .48-.192.337-.24.722-.961.384-.721.384-1.73 0-.673.673-1.25.721-.577 1.682-.673z" style="line-height:125%;-inkscape-font-specification:'Boon, Normal';text-align:start" fill="#fff"/></g></svg>