<?xml version="1.0" encoding="UTF-8" standalone="no"?>
<svg
   xmlns:dc="http://purl.org/dc/elements/1.1/"
   xmlns:cc="http://creativecommons.org/ns#"
   xmlns:rdf="http://www.w3.org/1999/02/22-rdf-syntax-ns#"
   xmlns:svg="http://www.w3.org/2000/svg"
   xmlns="http://www.w3.org/2000/svg"
   xmlns:sodipodi="http://sodipodi.sourceforge.net/DTD/sodipodi-0.dtd"
   xmlns:inkscape="http://www.inkscape.org/namespaces/inkscape"
   width="1200"
   height="630"
   viewBox="0 0 1200 630"
   id="svg2"
   version="1.1"
   inkscape:version="0.91 r13725"
   sodipodi:docname="boonjot-cover.svg"
   inkscape:export-filename="/home/i/repos/fontuni/fontuni.github.io/_fonts/boonjot/images/boonjot-cover.png"
   inkscape:export-xdpi="90"
   inkscape:export-ydpi="90">
  <metadata
     id="metadata16">
    <rdf:RDF>
      <cc:Work
         rdf:about="">
        <dc:format>image/svg+xml</dc:format>
        <dc:type
           rdf:resource="http://purl.org/dc/dcmitype/StillImage" />
        <dc:title></dc:title>
      </cc:Work>
    </rdf:RDF>
  </metadata>
  <defs
     id="defs14" />
  <sodipodi:namedview
     pagecolor="#ffffff"
     bordercolor="#666666"
     borderopacity="1"
     objecttolerance="10"
     gridtolerance="10"
     guidetolerance="10"
     inkscape:pageopacity="0"
     inkscape:pageshadow="2"
     inkscape:window-width="1366"
     inkscape:window-height="718"
     id="namedview12"
     showgrid="false"
     inkscape:zoom="0.44952381"
     inkscape:cx="150.52966"
     inkscape:cy="175"
     inkscape:window-x="0"
     inkscape:window-y="24"
     inkscape:window-maximized="1"
     inkscape:current-layer="layer2"
     inkscape:showpageshadow="false"
     showborder="false" />
  <g
     inkscape:groupmode="layer"
     id="layer1"
     inkscape:label="back"
     transform="translate(0,280)"
     sodipodi:insensitive="true">
    <path
       style="fill:#bb33bb;fill-opacity:1;stroke:none"
       d="m 0,-280 1200,0 0,630 -1200,0 z"
       id="rect4189"
       inkscape:connector-curvature="0" />
  </g>
  <g
     inkscape:groupmode="layer"
     id="layer2"
     inkscape:label="fore"
     transform="translate(0,280)">
    <g
       id="g4195"
       transform="matrix(3.2237613,0,0,3.2237613,37.16835,-707.26105)">
      <path
         inkscape:connector-curvature="0"
         d="m 84.84,222.39 0.493,0 q 1.777,0 2.961,0.888 1.284,0.888 1.284,2.172 l 0,0.098 q -0.494,14.413 -0.494,31.492 l 0,10.859 q 0,1.974 -0.197,2.961 -1.284,6.516 -8.095,10.267 -6.713,3.652 -16.486,3.652 -24.877,0 -24.877,-11.945 0,-5.725 0.197,-17.177 0.198,-11.45 0.198,-16.387 0,-3.159 -0.395,-5.824 -0.395,-2.666 -0.79,-3.949 -0.395,-1.283 -0.79,-1.58 -0.888,-0.888 -0.888,-1.875 0,-1.876 1.974,-3.06 1.58,-0.987 3.653,-0.987 2.073,0 3.159,0.987 2.468,2.073 3.06,5.627 0.69,3.455 0.69,9.674 0,5.133 -0.196,16.585 -0.198,11.352 -0.198,16.98 0,3.158 3.554,4.54 3.554,1.284 13.03,1.284 6.714,0 9.774,-1.679 3.06,-1.678 3.751,-5.133 0.198,-1.185 0.198,-1.974 l 0,-10.86 q 0,-17.078 0.493,-31.688 0.099,-1.48 1.48,-2.665 1.482,-1.185 3.456,-1.284 z m -13.115,75.815 q -0.79,-0.79 -0.79,-1.678 0,-1.678 1.975,-2.863 4.837,-2.764 9.082,-2.764 1.283,0 2.665,0.296 2.468,0.592 3.751,2.37 1.284,1.776 1.284,3.948 0,1.678 -0.099,4.344 -0.099,2.764 -0.099,3.948 0,2.27 0.296,4.245 l 0,0.296 q 0,1.185 -1.085,2.172 -1.185,1.086 -2.863,1.382 -0.395,0.099 -0.987,0.099 -1.481,0 -2.567,-0.691 -1.086,-0.691 -1.185,-1.678 -0.296,-2.27 -0.296,-6.91 l 0,-6.22 q 0,-1.086 -0.197,-1.283 -1.284,0.197 -2.764,1.185 -1.185,0.79 -3.06,0.79 -2.074,0 -3.061,-0.988 z m 112.835,-7.108 q 2.27,0.593 2.27,2.567 0,0.889 -0.493,1.48 -4.048,5.825 -9.97,8.885 -5.924,3.06 -12.044,3.06 l -1.086,0 q -5.825,-0.295 -9.675,-3.257 -3.85,-2.863 -3.85,-7.206 0,-1.481 0.395,-2.765 0.395,-1.184 1.876,-2.073 1.48,-0.888 3.159,-0.888 l 0.197,0 q 1.481,0.099 2.37,0.79 0.987,0.79 0.987,1.875 0,0.494 -0.099,0.691 -0.197,0.988 -0.197,1.382 0,2.074 1.875,3.456 1.975,1.382 4.837,1.58 l 0.692,0 q 7.403,0 12.833,-7.701 1.48,-2.073 4.54,-2.073 0.593,0 1.383,0.197 z m -4.541,-68.609 0.691,0 q 1.777,0 2.962,0.889 1.184,0.79 1.184,2.073 0,8.786 0.494,22.31 0.493,13.426 0.493,21.126 0,1.678 -0.197,2.468 -1.185,5.923 -7.503,9.477 -6.219,3.455 -13.623,3.455 -7.601,0 -13.327,-3.949 -5.627,-4.047 -5.627,-10.365 l 0,-0.099 q 0.099,-6.318 0.296,-18.56 0.198,-12.339 0.198,-14.51 0,-8.293 -9.97,-8.293 -10.662,0 -18.264,2.37 0.889,3.356 0.889,7.403 0,5.43 -0.987,16.387 -0.987,10.86 -0.987,15.203 0,4.146 1.085,5.627 1.185,1.48 3.752,1.48 l 0.197,0 q 0.198,0 2.764,-0.888 0.889,-0.395 2.27,-0.395 3.061,0 4.048,1.876 0.296,0.592 0.296,1.086 0,2.567 -3.257,3.751 -4.838,1.678 -7.7,1.678 -13.13,0 -13.13,-13.228 0,-5.133 0.987,-15.992 0.987,-10.958 0.987,-15.598 0,-2.369 -0.592,-4.837 -0.592,-2.567 -0.888,-2.961 -0.593,-0.79 -0.593,-1.481 0,-2.172 2.765,-3.455 4.935,-2.27 12.537,-3.653 7.7,-1.48 15.202,-1.48 7.8,0 13.031,3.75 5.232,3.653 5.232,10.662 0,2.27 -0.197,14.61 -0.198,12.242 -0.296,18.46 l 0,0.1 q 0,3.553 3.257,5.923 3.357,2.27 7.404,2.27 4.146,0 6.812,-1.48 2.665,-1.481 3.257,-4.344 0.198,-0.79 0.198,-1.481 0,-7.503 -0.494,-20.928 -0.493,-13.525 -0.493,-22.508 0,-1.382 1.382,-2.567 1.48,-1.184 3.455,-1.382 z m 20.398,17.177 q -2.468,-0.79 -2.468,-2.863 0,-0.888 0.592,-1.777 4.245,-5.923 10.464,-9.674 6.318,-3.85 13.327,-4.541 2.172,-0.197 3.159,-0.197 10.168,0 16.387,6.91 6.22,6.91 6.22,19.151 0,7.207 -1.975,13.722 -1.974,6.515 -5.034,10.76 -2.962,4.245 -5.331,6.812 -2.37,2.468 -4.344,3.751 -2.073,1.58 -4.245,1.58 -2.468,0 -3.455,-2.567 0,-0.099 -1.876,-6.12 -1.875,-6.121 -4.146,-10.958 -2.172,-4.837 -4.245,-5.627 l -0.592,0.395 q -1.678,1.184 -3.85,1.184 -1.876,0 -3.06,-0.888 -1.086,-0.79 -1.086,-2.172 0,-1.777 1.678,-2.863 3.85,-2.665 7.799,-2.764 l 0.395,0 q 3.751,0 6.219,2.27 1.974,1.777 3.949,6.417 1.974,4.541 2.665,7.01 0.691,2.368 2.073,7.206 2.468,-3.258 4.146,-5.923 1.679,-2.765 3.258,-8.293 1.678,-5.627 1.678,-11.945 0,-10.464 -4.54,-15.202 -4.443,-4.739 -10.366,-4.739 -0.198,0 -0.691,0.099 l -0.79,0 q -3.85,0.395 -7.996,2.961 -4.146,2.468 -7.305,6.812 -1.58,2.27 -5.035,2.27 -1.086,0 -1.58,-0.197 z m 89.673,27.74 0.69,0 q 1.778,0 2.962,0.888 1.185,0.79 1.185,2.074 0,4.935 -3.258,9.082 -3.257,4.047 -9.28,4.837 -1.579,0.197 -2.368,0.197 -8.293,0 -13.229,-8.292 -4.936,-8.391 -5.725,-23.89 0,-0.493 -0.1,-1.382 l 0,-1.283 q 0.1,-12.143 7.306,-19.645 7.305,-7.602 18.263,-8.687 2.172,-0.198 3.356,-0.198 10.07,0 17.177,5.528 7.108,5.43 7.108,14.314 l 0,0.297 q -0.099,9.082 -0.395,19.447 -0.197,10.366 -0.197,13.525 0,3.652 0.098,5.43 l 0,0.098 q 0,1.382 -1.382,2.566 -1.382,1.185 -3.356,1.382 l -0.79,0 q -1.678,0 -2.863,-0.79 -1.184,-0.789 -1.283,-2.072 -0.099,-1.876 -0.099,-5.627 0,-3.258 0.198,-13.525 0.296,-10.365 0.395,-19.447 l 0,-0.198 q 0,-6.416 -4.936,-10.069 -4.936,-3.751 -11.353,-3.751 -1.184,0 -1.777,0.099 -6.219,0.592 -10.957,5.429 -4.64,4.837 -4.739,14.906 l 0,2.271 q 0.296,6.515 1.48,11.649 1.284,5.034 2.666,7.7 1.382,2.665 2.962,4.442 1.678,1.678 2.665,2.172 0.987,0.395 1.48,0.395 0.297,0 0.988,-0.395 0.691,-0.494 1.48,-1.974 0.79,-1.481 0.79,-3.554 0,-1.382 1.383,-2.567 1.48,-1.185 3.455,-1.382 z"
         style="font-weight:400;font-size:118.46199799px;line-height:125%;font-family:Boon;-inkscape-font-specification:'Boon, Normal';text-align:start;letter-spacing:0;word-spacing:0;fill:#ffffff;fill-opacity:0.9"
         font-size="118.462"
         id="path6" />
      <path
         inkscape:connector-curvature="0"
         d="m 43.15,180.237 q -0.04,2.283 -0.119,6.141 -0.039,3.858 -0.039,4.921 1.024,0.512 3.661,0.512 2.756,0 5.551,-0.748 2.796,-0.787 4.488,-2.401 2.048,-2.008 2.323,-5 l 0,-0.276 q 0.04,-0.197 0.04,-0.315 0,-4.488 -6.103,-4.488 -0.866,0 -1.299,0.04 -0.827,0.039 -2.283,0.275 -2.677,0.945 -4.921,1.378 -0.788,-0.551 -1.3,-1.22 l 0,1.18 z m 0,-2.678 0.236,-0.118 q 0.275,-0.157 0.748,-0.275 1.81,-0.67 4.252,-1.181 1.771,-0.67 2.952,-1.22 1.772,-0.788 2.756,-2.166 1.024,-1.417 1.024,-2.953 0,-1.338 -0.827,-2.48 -1.575,-2.244 -5.59,-2.244 -4.331,0 -10.63,2.913 -0.59,0.276 -1.339,0.276 -1.063,0 -1.535,-0.63 Q 35,167.245 35,166.811 q 0,-0.944 1.181,-1.495 7.48,-3.426 13.228,-3.426 4.055,0 6.693,1.654 3.307,2.087 3.307,5.63 0,3.661 -3.465,6.456 3.268,0.433 5.315,2.205 2.048,1.772 2.048,4.803 0,0.472 -0.04,0.709 -0.197,2.677 -1.614,4.842 -1.378,2.165 -3.504,3.504 -2.126,1.3 -4.449,2.087 -2.283,0.748 -4.763,1.023 -1.772,0.197 -3.15,0.197 -5.197,0 -6.693,-1.93 -0.354,-0.432 -0.354,-1.062 0,-0.748 0.079,-5.236 0.079,-4.528 0.079,-7.441 0,-6.181 -0.355,-8.661 l 0,-0.158 q 0,-0.59 0.551,-1.063 0.552,-0.472 1.378,-0.63 0.158,-0.039 0.473,-0.039 0.708,0 1.22,0.354 0.551,0.315 0.63,0.827 0.276,2.205 0.354,7.559 l 0,0.04 z m 39.678,-1.969 q -0.552,-1.574 -1.89,-2.361 -1.339,-0.827 -2.914,-0.827 -0.669,0 -1.456,0.197 -2.087,0.59 -3.78,2.992 -1.653,2.362 -1.653,6.732 0,2.56 0.708,4.528 0.71,1.968 1.811,3.07 1.142,1.103 2.323,1.654 1.22,0.551 2.402,0.551 l 0.236,0 q 0.157,-0.04 0.236,-0.04 2.205,-0.236 4.055,-2.48 1.89,-2.283 1.89,-6.692 0,-1.536 -0.551,-3.19 -0.551,-1.653 -1.024,-1.968 -0.984,-0.315 -0.984,-1.102 0,-0.394 0.197,-0.63 0.118,-0.236 0.394,-0.433 z m 3.543,0.237 q 2.283,2.008 2.283,6.693 0,5.157 -2.716,8.543 -2.677,3.346 -7.047,3.819 -0.788,0.079 -1.22,0.079 -4.489,0 -7.442,-3.347 -2.952,-3.346 -2.952,-8.897 0,-5.118 2.283,-8.425 2.323,-3.307 6.22,-4.33 1.418,-0.395 2.874,-0.395 2.835,0 5.04,1.418 2.204,1.417 2.952,3.74 0.04,0.079 0.04,0.275 0,0.394 -0.315,0.827 z m 22.016,-0.237 q -0.551,-1.574 -1.89,-2.361 -1.338,-0.827 -2.913,-0.827 -0.67,0 -1.457,0.197 -2.086,0.59 -3.78,2.992 -1.653,2.362 -1.653,6.732 0,2.56 0.709,4.528 0.708,1.968 1.81,3.07 1.142,1.103 2.324,1.654 1.22,0.551 2.401,0.551 l 0.236,0 q 0.158,-0.04 0.237,-0.04 2.204,-0.236 4.055,-2.48 1.89,-2.283 1.89,-6.692 0,-1.536 -0.552,-3.19 -0.551,-1.653 -1.024,-1.968 -0.984,-0.315 -0.984,-1.102 0,-0.394 0.197,-0.63 0.118,-0.236 0.394,-0.433 z m 3.543,0.237 q 2.283,2.008 2.283,6.693 0,5.157 -2.716,8.543 -2.677,3.346 -7.047,3.819 -0.788,0.079 -1.22,0.079 -4.489,0 -7.441,-3.347 -2.953,-3.346 -2.953,-8.897 0,-5.118 2.283,-8.425 2.323,-3.307 6.22,-4.33 1.418,-0.395 2.875,-0.395 2.834,0 5.039,1.418 2.205,1.417 2.953,3.74 0.039,0.079 0.039,0.275 0,0.394 -0.315,0.827 z m 9.182,18.897 q -0.551,0 -0.945,-0.354 -0.394,-0.354 -0.394,-0.827 -0.079,-17.834 -1.535,-21.692 -0.079,-0.236 -0.079,-0.354 0,-1.024 1.457,-1.496 0.354,-0.119 0.787,-0.119 1.3,0 1.614,0.867 0.748,1.929 1.181,7.677 0.512,-1.772 1.142,-3.15 0.67,-1.378 1.732,-2.716 1.063,-1.378 2.717,-2.126 1.693,-0.748 3.819,-0.748 1.968,0 3.228,0.787 1.299,0.748 1.89,2.244 0.63,1.496 0.826,3.07 0.237,1.536 0.237,3.78 0,3.032 0.196,13.346 0,0.552 -0.55,1.063 -0.552,0.473 -1.34,0.552 l -0.314,0 q -0.709,0 -1.181,-0.315 -0.473,-0.315 -0.473,-0.827 -0.197,-10.354 -0.197,-13.425 0,-3.976 -0.826,-5.709 -0.827,-1.732 -2.048,-1.732 -4.527,0 -6.456,8.858 -1.024,4.646 -1.378,6.89 -0.315,2.205 -0.59,5.472 -1.3,0.984 -2.52,0.984 z m 37.043,-9.606 q 0,1.378 -0.08,2.402 -0.078,0.984 -0.472,2.362 -0.354,1.339 -1.063,2.244 -0.669,0.866 -2.007,1.614 -1.3,0.709 -3.11,0.906 -0.394,0.039 -1.221,0.039 -2.52,0 -4.606,-1.063 -2.087,-1.063 -3.229,-2.559 -0.196,-0.236 -0.196,-0.63 0,-0.945 1.18,-1.496 0.552,-0.275 1.26,-0.275 1.142,0 1.615,0.669 0.669,0.905 2.047,1.614 1.378,0.67 2.559,0.67 l 0.315,0 q 0.197,-0.04 0.275,-0.04 1.3,-0.118 1.969,-1.417 0.67,-1.339 0.67,-4.528 0,-10.945 -0.788,-17.913 -0.079,-0.67 -0.355,-1.024 -0.236,-0.354 -0.787,-0.55 -0.512,-0.198 -1.063,-0.276 -0.551,-0.079 -1.614,-0.236 -1.024,-0.158 -1.93,-0.394 l 0,-0.197 q 0,-2.323 1.576,-2.323 l 0.078,0 q 3.11,0.118 5.866,0.118 2.441,0 4.45,-0.118 l 0.196,0 q 0.709,0 1.142,0.315 0.472,0.315 0.472,0.748 l 0,0.118 q -0.079,0.512 -0.787,0.945 -0.67,0.394 -1.496,0.473 -0.355,0.039 -1.103,0.078 l -1.102,0 q 0.433,0.67 0.551,1.614 0.788,7.205 0.788,18.11 z m 22.019,-9.528 q -0.55,-1.574 -1.89,-2.361 -1.338,-0.827 -2.913,-0.827 -0.67,0 -1.456,0.197 -2.087,0.59 -3.78,2.992 -1.653,2.362 -1.653,6.732 0,2.56 0.708,4.528 0.709,1.968 1.811,3.07 1.142,1.103 2.323,1.654 1.22,0.551 2.402,0.551 l 0.236,0 q 0.157,-0.04 0.236,-0.04 2.205,-0.236 4.055,-2.48 1.89,-2.283 1.89,-6.692 0,-1.536 -0.551,-3.19 -0.552,-1.653 -1.024,-1.968 -0.984,-0.315 -0.984,-1.102 0,-0.394 0.197,-0.63 0.118,-0.236 0.393,-0.433 z m 3.543,0.237 q 2.284,2.008 2.284,6.693 0,5.157 -2.717,8.543 -2.677,3.346 -7.047,3.819 -0.787,0.079 -1.22,0.079 -4.488,0 -7.44,-3.347 -2.954,-3.346 -2.954,-8.897 0,-5.118 2.284,-8.425 2.323,-3.307 6.22,-4.33 1.417,-0.395 2.874,-0.395 2.835,0 5.04,1.418 2.204,1.417 2.952,3.74 0.04,0.079 0.04,0.275 0,0.394 -0.315,0.827 z m 11.269,-11.22 0.197,0 q 0.118,-0.04 0.196,-0.04 0.67,0 1.103,0.315 0.472,0.315 0.512,0.827 0.039,0.551 0.039,1.693 0,0.59 -0.04,1.693 l 0,1.693 q 2.087,0 5.158,-0.118 l 0.079,0 q 0.708,0 1.18,0.354 0.473,0.315 0.473,0.827 l 0,0.157 q -0.079,0.552 -0.709,1.024 -0.63,0.433 -1.417,0.472 -1.81,0.08 -4.567,0.08 -0.04,2.164 -0.236,7.086 -0.157,4.881 -0.157,7.362 0,2.559 1.535,3.661 0.59,0.433 1.142,0.433 1.023,0 2.756,-1.26 0.708,-0.512 1.574,-0.512 0.709,0 1.181,0.355 0.473,0.354 0.473,0.866 0,0.63 -0.63,1.102 -2.913,2.166 -5.984,2.166 -2.008,0 -3.465,-1.024 -2.44,-1.772 -2.44,-5.394 0,-2.48 0.196,-7.48 0.197,-5 0.197,-7.44 -2.126,-0.08 -3.307,-0.197 -0.63,-0.04 -1.063,-0.394 -0.394,-0.354 -0.394,-0.827 0,-0.118 0.08,-0.354 0.196,-0.551 0.826,-0.906 0.63,-0.354 1.378,-0.354 l 0.197,0 q 1.535,0.157 2.44,0.197 0,-0.079 -0.354,-4.41 l 0,-0.039 q 0,-0.551 0.512,-1.024 0.551,-0.472 1.339,-0.59 z m 50.229,-1.221 q 0,0.63 -0.63,1.182 -0.63,0.511 -1.496,0.59 -3.858,0.394 -10.67,0.394 -2.755,0 -4.33,-0.04 0.394,1.181 0.394,3.19 0.079,5.59 0.079,8.306 2.834,0.079 3.897,0.079 2.913,0 7.638,-0.236 l 0.118,0 q 0.787,0 1.299,0.393 0.551,0.355 0.551,0.906 l 0,0.118 q -0.079,0.63 -0.748,1.142 -0.67,0.472 -1.535,0.512 -4.843,0.236 -7.992,0.236 -2.087,0 -3.19,-0.04 0,7.52 -0.314,12.874 -0.04,0.63 -0.709,1.142 -0.63,0.512 -1.496,0.551 l -0.197,0 q -0.787,0 -1.338,-0.394 -0.512,-0.393 -0.512,-0.945 l 0,-0.039 q 0.315,-5.472 0.315,-13.346 l -0.315,0 q -0.236,-0.04 -0.315,-0.04 -0.709,-0.039 -1.181,-0.393 -0.472,-0.394 -0.472,-0.945 0,-0.197 0.039,-0.315 0.157,-0.551 0.787,-0.945 0.63,-0.394 1.418,-0.472 -0.04,-1.26 -0.079,-3.82 l 0,-3.857 q -0.04,-1.93 -0.354,-2.677 -0.276,-0.748 -1.024,-1.063 -0.394,-0.118 -0.512,-0.158 -0.55,-0.157 -0.55,-0.59 0,-0.394 0.51,-0.985 0.513,-0.63 1.024,-1.023 l 0.512,-0.394 q 4.173,0.197 8.819,0.197 6.181,0 10.433,-0.394 l 0.315,0 q 0.787,0 1.299,0.394 0.512,0.354 0.512,0.905 z m 15.974,12.204 q -0.551,-1.574 -1.89,-2.361 -1.338,-0.827 -2.913,-0.827 -0.67,0 -1.457,0.197 -2.086,0.59 -3.78,2.992 -1.653,2.362 -1.653,6.732 0,2.56 0.709,4.528 0.708,1.968 1.81,3.07 1.143,1.103 2.324,1.654 1.22,0.551 2.401,0.551 l 0.236,0 q 0.158,-0.04 0.237,-0.04 2.204,-0.236 4.055,-2.48 1.89,-2.283 1.89,-6.692 0,-1.536 -0.552,-3.19 -0.551,-1.653 -1.023,-1.968 -0.985,-0.315 -0.985,-1.102 0,-0.394 0.197,-0.63 0.118,-0.236 0.394,-0.433 z m 3.543,0.237 q 2.283,2.008 2.283,6.693 0,5.157 -2.716,8.543 -2.677,3.346 -7.047,3.819 -0.787,0.079 -1.22,0.079 -4.489,0 -7.441,-3.347 -2.953,-3.346 -2.953,-8.897 0,-5.118 2.283,-8.425 2.323,-3.307 6.22,-4.33 1.418,-0.395 2.875,-0.395 2.834,0 5.039,1.418 2.205,1.417 2.953,3.74 0.04,0.079 0.04,0.275 0,0.394 -0.316,0.827 z m 9.182,18.897 q -0.551,0 -0.945,-0.354 -0.394,-0.354 -0.394,-0.827 -0.079,-17.834 -1.535,-21.692 -0.079,-0.236 -0.079,-0.354 0,-1.024 1.457,-1.496 0.354,-0.119 0.787,-0.119 1.3,0 1.614,0.867 0.748,1.929 1.181,7.677 0.512,-1.772 1.142,-3.15 0.67,-1.378 1.732,-2.716 1.063,-1.378 2.717,-2.126 1.693,-0.748 3.819,-0.748 1.968,0 3.228,0.787 1.3,0.748 1.89,2.244 0.63,1.496 0.826,3.07 0.237,1.536 0.237,3.78 0,3.032 0.196,13.346 0,0.552 -0.55,1.063 -0.552,0.473 -1.34,0.552 l -0.314,0 q -0.709,0 -1.181,-0.315 -0.473,-0.315 -0.473,-0.827 -0.197,-10.354 -0.197,-13.425 0,-3.976 -0.826,-5.709 -0.827,-1.732 -2.048,-1.732 -4.527,0 -6.456,8.858 -1.024,4.646 -1.378,6.89 -0.315,2.205 -0.59,5.472 -1.3,0.984 -2.52,0.984 z m 27.83,-30.117 0.197,0 q 0.118,-0.04 0.197,-0.04 0.67,0 1.102,0.315 0.473,0.315 0.512,0.827 0.04,0.551 0.04,1.693 0,0.59 -0.04,1.693 l 0,1.693 q 2.087,0 5.157,-0.118 l 0.08,0 q 0.708,0 1.18,0.354 0.473,0.315 0.473,0.827 l 0,0.157 q -0.08,0.552 -0.71,1.024 -0.629,0.433 -1.416,0.472 -1.811,0.08 -4.567,0.08 -0.04,2.164 -0.236,7.086 -0.158,4.881 -0.158,7.362 0,2.559 1.535,3.661 0.591,0.433 1.142,0.433 1.024,0 2.756,-1.26 0.709,-0.512 1.575,-0.512 0.708,0 1.18,0.355 0.473,0.354 0.473,0.866 0,0.63 -0.63,1.102 -2.913,2.166 -5.984,2.166 -2.008,0 -3.464,-1.024 -2.441,-1.772 -2.441,-5.394 0,-2.48 0.197,-7.48 0.197,-5 0.197,-7.44 -2.126,-0.08 -3.307,-0.197 -0.63,-0.04 -1.063,-0.394 -0.394,-0.354 -0.394,-0.827 0,-0.118 0.079,-0.354 0.196,-0.551 0.826,-0.906 0.63,-0.354 1.378,-0.354 l 0.197,0 q 1.536,0.157 2.441,0.197 0,-0.079 -0.354,-4.41 l 0,-0.039 q 0,-0.551 0.512,-1.024 0.55,-0.472 1.338,-0.59 z"
         style="font-weight:400;font-size:47.24300003px;line-height:125%;font-family:BoonJot;-inkscape-font-specification:'BoonJot, Normal';text-align:start;letter-spacing:0;word-spacing:0;fill:#ffffff;fill-opacity:0.9"
         font-size="47.243"
         id="path10" />
    </g>
  </g>
</svg>
