<svg xmlns="http://www.w3.org/2000/svg" width="350" height="350" viewBox="0 0 350 350"><g font-weight="400" letter-spacing="0" word-spacing="0" fill="#fff" fill-opacity=".9"><path d="M84.84 222.39h.493q1.777 0 2.961.888 1.284.888 1.284 2.172v.098q-.494 14.413-.494 31.492v10.859q0 1.974-.197 2.961-1.284 6.516-8.095 10.267-6.713 3.652-16.486 3.652-24.877 0-24.877-11.945 0-5.725.197-17.177.198-11.45.198-16.387 0-3.159-.395-5.824-.395-2.666-.79-3.949t-.79-1.58q-.888-.888-.888-1.875 0-1.876 1.974-3.06 1.58-.987 3.653-.987t3.159.987q2.468 2.073 3.06 5.627.69 3.455.69 9.674 0 5.133-.196 16.585-.198 11.352-.198 16.98 0 3.158 3.554 4.54 3.554 1.284 13.03 1.284 6.714 0 9.774-1.679 3.06-1.678 3.751-5.133.198-1.185.198-1.974v-10.86q0-17.078.493-31.688.099-1.48 1.48-2.665 1.482-1.185 3.456-1.284zm-13.115 75.815q-.79-.79-.79-1.678 0-1.678 1.975-2.863 4.837-2.764 9.082-2.764 1.283 0 2.665.296 2.468.592 3.751 2.37 1.284 1.776 1.284 3.948 0 1.678-.099 4.344-.099 2.764-.099 3.948 0 2.27.296 4.245v.296q0 1.185-1.085 2.172-1.185 1.086-2.863 1.382-.395.099-.987.099-1.481 0-2.567-.691t-1.185-1.678q-.296-2.27-.296-6.91v-6.22q0-1.086-.197-1.283-1.284.197-2.764 1.185-1.185.79-3.06.79-2.074 0-3.061-.988zm112.835-7.108q2.27.593 2.27 2.567 0 .889-.493 1.48-4.048 5.825-9.97 8.885-5.924 3.06-12.044 3.06h-1.086q-5.825-.295-9.675-3.257-3.85-2.863-3.85-7.206 0-1.481.395-2.765.395-1.184 1.876-2.073 1.48-.888 3.159-.888h.197q1.481.099 2.37.79.987.79.987 1.875 0 .494-.099.691-.197.988-.197 1.382 0 2.074 1.875 3.456 1.975 1.382 4.837 1.58h.692q7.403 0 12.833-7.701 1.48-2.073 4.54-2.073.593 0 1.383.197zm-4.541-68.609h.691q1.777 0 2.962.889 1.184.79 1.184 2.073 0 8.786.494 22.31.493 13.426.493 21.126 0 1.678-.197 2.468-1.185 5.923-7.503 9.477-6.219 3.455-13.623 3.455-7.601 0-13.327-3.949-5.627-4.047-5.627-10.365v-.099q.099-6.318.296-18.56.198-12.339.198-14.51 0-8.293-9.97-8.293-10.662 0-18.264 2.37.889 3.356.889 7.403 0 5.43-.987 16.387-.987 10.86-.987 15.203 0 4.146 1.085 5.627 1.185 1.48 3.752 1.48h.197q.198 0 2.764-.888.889-.395 2.27-.395 3.061 0 4.048 1.876.296.592.296 1.086 0 2.567-3.257 3.751-4.838 1.678-7.7 1.678-13.13 0-13.13-13.228 0-5.133.987-15.992.987-10.958.987-15.598 0-2.369-.592-4.837-.592-2.567-.888-2.961-.593-.79-.593-1.481 0-2.172 2.765-3.455 4.935-2.27 12.537-3.653 7.7-1.48 15.202-1.48 7.8 0 13.031 3.75 5.232 3.653 5.232 10.662 0 2.27-.197 14.61-.198 12.242-.296 18.46v.1q0 3.553 3.257 5.923 3.357 2.27 7.404 2.27 4.146 0 6.812-1.48 2.665-1.481 3.257-4.344.198-.79.198-1.481 0-7.503-.494-20.928-.493-13.525-.493-22.508 0-1.382 1.382-2.567 1.48-1.184 3.455-1.382zm20.398 17.177q-2.468-.79-2.468-2.863 0-.888.592-1.777 4.245-5.923 10.464-9.674 6.318-3.85 13.327-4.541 2.172-.197 3.159-.197 10.168 0 16.387 6.91 6.22 6.91 6.22 19.151 0 7.207-1.975 13.722-1.974 6.515-5.034 10.76-2.962 4.245-5.331 6.812-2.37 2.468-4.344 3.751-2.073 1.58-4.245 1.58-2.468 0-3.455-2.567 0-.099-1.876-6.12-1.875-6.121-4.146-10.958-2.172-4.837-4.245-5.627l-.592.395q-1.678 1.184-3.85 1.184-1.876 0-3.06-.888-1.086-.79-1.086-2.172 0-1.777 1.678-2.863 3.85-2.665 7.799-2.764h.395q3.751 0 6.219 2.27 1.974 1.777 3.949 6.417 1.974 4.541 2.665 7.01.691 2.368 2.073 7.206 2.468-3.258 4.146-5.923 1.679-2.765 3.258-8.293 1.678-5.627 1.678-11.945 0-10.464-4.54-15.202-4.443-4.739-10.366-4.739-.198 0-.691.099h-.79q-3.85.395-7.996 2.961-4.146 2.468-7.305 6.812-1.58 2.27-5.035 2.27-1.086 0-1.58-.197zm89.673 27.74h.69q1.778 0 2.962.888 1.185.79 1.185 2.074 0 4.935-3.258 9.082-3.257 4.047-9.28 4.837-1.579.197-2.368.197-8.293 0-13.229-8.292-4.936-8.391-5.725-23.89 0-.493-.1-1.382v-1.283q.1-12.143 7.306-19.645 7.305-7.602 18.263-8.687 2.172-.198 3.356-.198 10.07 0 17.177 5.528 7.108 5.43 7.108 14.314v.297q-.099 9.082-.395 19.447-.197 10.366-.197 13.525 0 3.652.098 5.43v.098q0 1.382-1.382 2.566-1.382 1.185-3.356 1.382h-.79q-1.678 0-2.863-.79-1.184-.789-1.283-2.072-.099-1.876-.099-5.627 0-3.258.198-13.525.296-10.365.395-19.447v-.198q0-6.416-4.936-10.069-4.936-3.751-11.353-3.751-1.184 0-1.777.099-6.219.592-10.957 5.429-4.64 4.837-4.739 14.906v2.271q.296 6.515 1.48 11.649 1.284 5.034 2.666 7.7 1.382 2.665 2.962 4.442 1.678 1.678 2.665 2.172.987.395 1.48.395.297 0 .988-.395.691-.494 1.48-1.974.79-1.481.79-3.554 0-1.382 1.383-2.567 1.48-1.185 3.455-1.382z" style="line-height:125%;-inkscape-font-specification:'Boon, Normal';text-align:start" font-size="118.462" font-family="Boon"/><path d="M169.493 45.213q.456 0 .74.2.285.199.285.512 0 .057-.029.142-.028.086-.028.114-.825 2.305-1.935 7.769t-1.935 9.932q-.826 4.467-.996 4.78-.854.968-1.65.968-.57 0-.883-.598-.313-.626-.94-2.675-.625-2.049-1.45-4.894-.826-2.846-1.253-4.184-.626 1.082-2.134 3.785-1.508 2.704-2.646 4.667-1.11 1.935-1.765 2.846-.341.455-.37.512-1.11.484-1.85.484-.654 0-.654-.455v-.086q.028-.056.028-.085 1.338-8.395 1.338-14.4 0-1.166-.085-1.422-.029-.086-.029-.256.085-.683 1.138-1.025.256-.085.541-.085.882 0 1.024.569.114.37.114 1.65 0 3.5-.74 9.904.911-1.566 2.163-3.842 1.252-2.305 2.05-3.785.824-1.48 1.08-1.793.655-.882 1.338-.882.285 0 .57.17.284.143.398.285l.142.171q.142.313.569 1.878.455 1.537 1.11 3.899.654 2.362 1.167 3.956 2.475-13.632 3.927-17.758.142-.398.626-.683.484-.284 1.024-.284zm3.646 12.209q-.769-.171-.769-.769 0-.17.2-.483 1.337-1.879 3.3-3.102 1.964-1.224 4.098-1.452.626-.056.911-.056 2.789 0 4.44 1.85 1.65 1.82 1.65 5.093 0 1.053-.17 2.191-.627 3.9-3.074 6.29-2.42 2.39-5.692 2.731-.626.057-.939.057-2.476 0-4.07-1.28-1.593-1.31-1.593-3.415 0-.54.057-.825.256-1.509 1.31-2.505.625-.512 1.223-.768.854-.342 1.736-.342 1.252 0 2.447.598.398.17.398.598v.142q-.056.341-.37.626-.54.512-1.422.512-.342 0-.598-.114-.655-.313-1.224-.313h-.085q-.057.029-.17.171-.086.114-.228.427-.143.313-.2.683-.057.455-.057.626 0 1.48 1.082 2.305 1.081.825 2.533.825.341 0 .512-.028.768-.085 1.536-.455.797-.37 1.623-1.082.825-.74 1.48-2.077.654-1.338.938-3.102.171-1.11.171-2.02 0-2.732-1.252-4.041-1.224-1.31-2.846-1.31-.085 0-.199.029h-.17q-2.59.284-4.554 3.045-.54.768-1.622.768-.228 0-.341-.028zM189.85 69.09l.284-1.85.711-4.61q.513-3.13 1.082-6.773.114-.655.114-1.338 0-.797-.114-1.024-.114-.228-.114-.37v-.086q.085-.54.74-.882.427-.228.939-.228.598 0 .882.314.427.512.427 1.536 0 .598-.2 1.793-.426 2.618-.91 5.976-.484 3.358-.654 4.354 1.11-1.224 2.077-2.077 2.817-2.448 4.81-3.16.796-3.812 1.678-7.426.114-.399.57-.712.483-.313.996-.341h.085q.455 0 .711.199.285.199.285.512v.17q-.37 1.48-.996 3.814-.626 2.305-.882 3.33h.341q1.907 0 2.704 1.053.825 1.052.825 2.675 0 .426-.114 1.28-.142.74-.341 1.338-.57 1.565-1.879 2.504-1.309.939-2.845.939-2.22 0-2.22-2.59 0-.882.228-2.162l.085-.683q.085-.456.142-.883.086-.426.171-.825-1.366.626-2.646 1.736-1.736 1.48-4.383 4.44-.654.768-1.394.768-.256 0-.57-.17-.284-.172-.455-.342l-.17-.2zm11.553-4.127q-.199 1.195-.199 1.964 0 1.394.512 1.394.2 0 .427-.085.228-.086.626-.513.399-.455.655-1.166.17-.484.256-1.053.114-.683.114-1.338 0-1.992-1.509-1.992h-.341q-.342 1.452-.54 2.789zm21.324 4.61q-.143.029-.399.029-.939 0-.996-.655v-.228q0-.796.456-3.728.227-1.45.768-4.61.54-3.158.74-4.382.057-.399.085-.57-2.39 1.395-3.642 1.822-.683.256-1.195.256-.627 0-.627-.512v-.17q.086-.342.114-.428.171-.54.2-.711.028-.142.028-.399 0-.768-.455-1.166-.456-.427-.996-.427h-.143q-.37.028-.91.37-.541.313-1.224 1.024-.683.712-1.309 2.135-.626 1.422-.91 3.33-.228 1.507-.228 2.503 0 1.11.199 2.02.228.883.512 1.395.313.513.655.854.37.341.626.484.284.114.484.114h.028q.114 0 .313-.086.2-.114.484-.54.284-.427.398-1.053.057-.37.484-.683.455-.342.996-.399h.2q.426 0 .682.2.285.17.285.483 0 1.395-1.252 2.59-1.224 1.195-2.903 1.366-.17.028-.54.028-2.021 0-3.16-1.593-1.138-1.622-1.138-4.582 0-1.451.228-2.817.626-3.984 2.59-6.346 1.992-2.39 4.723-2.675.2-.029.598-.029 1.423 0 2.22.797.797.797.797 1.935 0 .313-.029.484 1.28-.683 3.643-2.277.796-.569 1.309-.569.341 0 .54.228.2.227.228.455l.028.256q-.028.057-.028.2v.17q-.085.968-.398 2.874-.2 1.224-.712 4.184-.484 2.93-.683 4.268-.455 2.988-.455 3.5v.228q-.057.342-.427.655-.37.284-.882.398zm-1.11-20.603q-.256.114-.683.114-.797 0-.94-.456-.198-.512-.198-1.11 0-.313.028-.455.285-1.679 2.248-2.39.513-.171 1.736-.54 1.224-.4 1.65-.57.485-.17.684-.598.455-.825 1.394-.825h.142q.712.085.712.598 0 .113-.114.398-.598 1.224-2.277 1.964-.199.085-3.244 1.166-.341.171-.398.484v.114q0 .341.2.854.056.114.056.17v.086q-.029.028-.029.057-.113.654-.967.939zm19.146 11.724q2.362-3.33 2.703-5.407.057-.398.057-.54 0-1.252-1.394-1.252-.968 0-1.338.256-.341.256-.598.996-.142.54-.17.683-.086.512-.086 1.081 0 1.85.826 4.183zm.939 1.65q1.11 2.989 3.102 5.778.113.199.056.37-.085.569-.853.91-.399.171-.826.171-.654 0-.939-.37-1.195-1.821-2.39-4.724-4.838 5.436-7.883 5.436-2.419 0-2.419-4.212 0-1.907.484-4.866.712-4.582 1.907-7.684.142-.398.626-.683.512-.284 1.053-.284.455 0 .711.199.285.199.285.512 0 .057-.029.142-.028.086-.028.114-1.195 3.187-1.878 7.4-.427 2.731-.427 4.666 0 2.134.54 2.704.996-.342 2.818-1.822 1.821-1.508 3.5-3.528-.028-.057-.057-.143-.028-.085-.057-.114-.057-.142-.142-.398-.085-.256-.142-.37-1.224-3.415-1.224-5.037 0-.284.057-.797.057-.341.284-.967.456-1.31 1.765-2.106 1.337-.825 3.187-.825 1.68 0 2.419.768.74.74.74 1.907 0 .199-.057.654-.228 1.423-1.252 3.074-.996 1.65-2.76 3.898-.029.029-.086.114l-.085.085v.029zm19.968-7.626q-.598.456-1.366.456-.427 0-.683-.171l-.768-.427q-1.907-.94-3.757-.94-2.02 0-2.96.826-.483.427-.597 1.138-.028.086-.028.285 0 1.821 3.272 3.358 2.362 1.138 3.5 2.561 1.167 1.423 1.167 2.874 0 .2-.057.598-.028.256-.199.768-.512 1.452-2.049 2.562-1.536 1.081-3.386 1.081-2.76 0-4.354-1.565-.171-.17-.171-.456v-.142q.085-.512.655-.854.54-.313 1.138-.313.54 0 .825.285 1.025.996 2.647.996.569 0 1.166-.37.598-.37.883-1.195.056-.17.113-.455.029-.114.029-.37 0-2.39-3.899-4.24-4.04-1.964-4.04-4.668 0-.313.028-.483.227-1.281 1.451-2.39 2.134-1.879 5.492-1.879 2.675 0 5.123 1.224.313.142.939.483.37.228.37.57 0 .028-.029.085v.057q-.057.398-.455.711zm15.34 0q-.597.456-1.366.456-.426 0-.683-.171l-.768-.427q-1.907-.94-3.756-.94-2.02 0-2.96.826-.484.427-.598 1.138-.028.086-.028.285 0 1.821 3.273 3.358 2.362 1.138 3.5 2.561 1.167 1.423 1.167 2.874 0 .2-.057.598-.029.256-.2.768-.512 1.452-2.048 2.562-1.537 1.081-3.387 1.081-2.76 0-4.354-1.565-.17-.17-.17-.456v-.142q.085-.512.654-.854.54-.313 1.138-.313.54 0 .825.285 1.025.996 2.647.996.57 0 1.167-.37.597-.37.882-1.195.057-.17.114-.455.028-.114.028-.37 0-2.39-3.898-4.24-4.041-1.964-4.041-4.668 0-.313.028-.483.228-1.281 1.451-2.39 2.135-1.879 5.493-1.879 2.675 0 5.122 1.224.313.142.94.483.37.228.37.57 0 .028-.03.085v.057q-.056.398-.455.711zm16.394.683v-.057q0-.028-.029-.057-.284-.967-.91-1.48-.598-.54-1.253-.54-1.166 0-1.508.996-.057.142-.114.484-.028.114-.028.341 0 .626.37.996.398.37 1.11.37.91 0 2.162-.91.114-.057.2-.143zm2.39.2v.569q0 .313-.057.939-.626 3.898-1.223 7.996-.114.57-.2.826-.654 1.85-2.817 2.93-2.163 1.054-4.952 1.054-6.716 0-6.716-2.903 0-.313.029-.484.256-1.622.825-4.895.598-3.3.825-4.78.171-1.11.171-1.85 0-1.138-.227-1.451-.171-.171-.171-.456v-.085q.085-.484.654-.825.513-.285.996-.285.513 0 .854.285.626.597.626 1.935 0 .797-.256 2.447-.228 1.423-.797 4.724-.569 3.301-.825 4.952 0 .028-.028.113v.143q0 .768 1.08 1.138 1.082.342 3.672.342 3.7 0 4.44-2.05.113-.34.142-.54.057-.256.313-1.736.284-1.508.597-3.301.313-1.821.541-3.216-1.366.968-2.846.968t-2.248-.826q-.74-.825-.74-1.963 0-.313.029-.484.028-.256.142-.569.37-1.024 1.48-1.821 1.11-.826 2.703-.826 2.191 0 3.33 2.22.882-.91 2.134-2.276.455-.513 1.31-.513.17 0 .398.057.54.171.54.655v.085q-.057.228-.17.342-.911 1.024-3.359 3.244-.028.028-.113.085l-.086.085zm5.436 2.276q-.911-.085-.911-.74 0-.114.114-.398 1.053-2.02 3.158-3.444 2.135-1.45 4.354-1.593h.399q1.65 0 2.533.91.91.883.91 2.476 0 .484-.085.996-.029.228-.142.683-1.509 6.09-2.277 10.9l-.17 1.11q-.058.398-.542.74-.455.37-1.024.426h-.228q-.483 0-.768-.2-.285-.198-.285-.511 0-.057.171-1.252.712-4.582 2.305-11.042.114-.455.143-.655.056-.284.056-.796 0-.968-.426-1.366-.427-.399-.968-.399h-.114q-.939.057-2.276.968-1.338.882-2.05 2.276-.227.399-.71.655-.485.256-1.025.256h-.143z" style="line-height:125%;-inkscape-font-specification:'BoonJot, Italic';text-align:start" font-style="italic" font-size="34.149" font-family="BoonJot"/><path d="M43.15 180.237q-.04 2.283-.119 6.141-.039 3.858-.039 4.921 1.024.512 3.661.512 2.756 0 5.551-.748 2.796-.787 4.488-2.401 2.048-2.008 2.323-5v-.276q.04-.197.04-.315 0-4.488-6.103-4.488-.866 0-1.299.04-.827.039-2.283.275-2.677.945-4.921 1.378-.788-.551-1.3-1.22v1.18zm0-2.678l.236-.118q.275-.157.748-.275 1.81-.67 4.252-1.181 1.771-.67 2.952-1.22 1.772-.788 2.756-2.166 1.024-1.417 1.024-2.953 0-1.338-.827-2.48-1.575-2.244-5.59-2.244-4.331 0-10.63 2.913-.59.276-1.339.276-1.063 0-1.535-.63-.197-.236-.197-.67 0-.944 1.181-1.495 7.48-3.426 13.228-3.426 4.055 0 6.693 1.654 3.307 2.087 3.307 5.63 0 3.661-3.465 6.456 3.268.433 5.315 2.205 2.048 1.772 2.048 4.803 0 .472-.04.709-.197 2.677-1.614 4.842-1.378 2.165-3.504 3.504-2.126 1.3-4.449 2.087-2.283.748-4.763 1.023-1.772.197-3.15.197-5.197 0-6.693-1.93-.354-.432-.354-1.062 0-.748.079-5.236.079-4.528.079-7.441 0-6.181-.355-8.661v-.158q0-.59.551-1.063.552-.472 1.378-.63.158-.039.473-.039.708 0 1.22.354.551.315.63.827.276 2.205.354 7.559v.04zm39.678-1.969q-.552-1.574-1.89-2.361-1.339-.827-2.914-.827-.669 0-1.456.197-2.087.59-3.78 2.992-1.653 2.362-1.653 6.732 0 2.56.708 4.528.71 1.968 1.811 3.07 1.142 1.103 2.323 1.654 1.22.551 2.402.551h.236q.157-.04.236-.04 2.205-.236 4.055-2.48 1.89-2.283 1.89-6.692 0-1.536-.551-3.19-.551-1.653-1.024-1.968-.984-.315-.984-1.102 0-.394.197-.63.118-.236.394-.433zm3.543.237q2.283 2.008 2.283 6.693 0 5.157-2.716 8.543-2.677 3.346-7.047 3.819-.788.079-1.22.079-4.489 0-7.442-3.347-2.952-3.346-2.952-8.897 0-5.118 2.283-8.425 2.323-3.307 6.22-4.33 1.418-.395 2.874-.395 2.835 0 5.04 1.418 2.204 1.417 2.952 3.74.04.079.04.275 0 .394-.315.827zm22.016-.237q-.551-1.574-1.89-2.361-1.338-.827-2.913-.827-.67 0-1.457.197-2.086.59-3.78 2.992-1.653 2.362-1.653 6.732 0 2.56.709 4.528.708 1.968 1.81 3.07 1.142 1.103 2.324 1.654 1.22.551 2.401.551h.236q.158-.04.237-.04 2.204-.236 4.055-2.48 1.89-2.283 1.89-6.692 0-1.536-.552-3.19-.551-1.653-1.024-1.968-.984-.315-.984-1.102 0-.394.197-.63.118-.236.394-.433zm3.543.237q2.283 2.008 2.283 6.693 0 5.157-2.716 8.543-2.677 3.346-7.047 3.819-.788.079-1.22.079-4.489 0-7.441-3.347-2.953-3.346-2.953-8.897 0-5.118 2.283-8.425 2.323-3.307 6.22-4.33 1.418-.395 2.875-.395 2.834 0 5.039 1.418 2.205 1.417 2.953 3.74.039.079.039.275 0 .394-.315.827zm9.182 18.897q-.551 0-.945-.354-.394-.354-.394-.827-.079-17.834-1.535-21.692-.079-.236-.079-.354 0-1.024 1.457-1.496.354-.119.787-.119 1.3 0 1.614.867.748 1.929 1.181 7.677.512-1.772 1.142-3.15.67-1.378 1.732-2.716 1.063-1.378 2.717-2.126 1.693-.748 3.819-.748 1.968 0 3.228.787 1.299.748 1.89 2.244.63 1.496.826 3.07.237 1.536.237 3.78 0 3.032.196 13.346 0 .552-.55 1.063-.552.473-1.34.552h-.314q-.709 0-1.181-.315-.473-.315-.473-.827-.197-10.354-.197-13.425 0-3.976-.826-5.709-.827-1.732-2.048-1.732-4.527 0-6.456 8.858-1.024 4.646-1.378 6.89-.315 2.205-.59 5.472-1.3.984-2.52.984zm37.043-9.606q0 1.378-.08 2.402-.078.984-.472 2.362-.354 1.339-1.063 2.244-.669.866-2.007 1.614-1.3.709-3.11.906-.394.039-1.221.039-2.52 0-4.606-1.063-2.087-1.063-3.229-2.559-.196-.236-.196-.63 0-.945 1.18-1.496.552-.275 1.26-.275 1.142 0 1.615.669.669.905 2.047 1.614 1.378.67 2.559.67h.315q.197-.04.275-.04 1.3-.118 1.969-1.417.67-1.339.67-4.528 0-10.945-.788-17.913-.079-.67-.355-1.024-.236-.354-.787-.55-.512-.198-1.063-.276-.551-.079-1.614-.236-1.024-.158-1.93-.394v-.197q0-2.323 1.576-2.323h.078q3.11.118 5.866.118 2.441 0 4.45-.118h.196q.709 0 1.142.315.472.315.472.748v.118q-.079.512-.787.945-.67.394-1.496.473-.355.039-1.103.078h-1.102q.433.67.551 1.614.788 7.205.788 18.11zm22.019-9.528q-.55-1.574-1.89-2.361-1.338-.827-2.913-.827-.67 0-1.456.197-2.087.59-3.78 2.992-1.653 2.362-1.653 6.732 0 2.56.708 4.528.709 1.968 1.811 3.07 1.142 1.103 2.323 1.654 1.22.551 2.402.551h.236q.157-.04.236-.04 2.205-.236 4.055-2.48 1.89-2.283 1.89-6.692 0-1.536-.551-3.19-.552-1.653-1.024-1.968-.984-.315-.984-1.102 0-.394.197-.63.118-.236.393-.433zm3.543.237q2.284 2.008 2.284 6.693 0 5.157-2.717 8.543-2.677 3.346-7.047 3.819-.787.079-1.22.079-4.488 0-7.44-3.347-2.954-3.346-2.954-8.897 0-5.118 2.284-8.425 2.323-3.307 6.22-4.33 1.417-.395 2.874-.395 2.835 0 5.04 1.418 2.204 1.417 2.952 3.74.04.079.04.275 0 .394-.315.827zm11.269-11.22h.197q.118-.04.196-.04.67 0 1.103.315.472.315.512.827.039.551.039 1.693 0 .59-.04 1.693v1.693q2.087 0 5.158-.118h.079q.708 0 1.18.354.473.315.473.827v.157q-.079.552-.709 1.024-.63.433-1.417.472-1.81.08-4.567.08-.04 2.164-.236 7.086-.157 4.881-.157 7.362 0 2.559 1.535 3.661.59.433 1.142.433 1.023 0 2.756-1.26.708-.512 1.574-.512.709 0 1.181.355.473.354.473.866 0 .63-.63 1.102-2.913 2.166-5.984 2.166-2.008 0-3.465-1.024-2.44-1.772-2.44-5.394 0-2.48.196-7.48.197-5 .197-7.44-2.126-.08-3.307-.197-.63-.04-1.063-.394-.394-.354-.394-.827 0-.118.08-.354.196-.551.826-.906.63-.354 1.378-.354h.197q1.535.157 2.44.197 0-.079-.354-4.41v-.039q0-.551.512-1.024.551-.472 1.339-.59zm50.229-1.221q0 .63-.63 1.182-.63.511-1.496.59-3.858.394-10.67.394-2.755 0-4.33-.04.394 1.181.394 3.19.079 5.59.079 8.306 2.834.079 3.897.079 2.913 0 7.638-.236h.118q.787 0 1.299.393.551.355.551.906v.118q-.079.63-.748 1.142-.67.472-1.535.512-4.843.236-7.992.236-2.087 0-3.19-.04 0 7.52-.314 12.874-.04.63-.709 1.142-.63.512-1.496.551h-.197q-.787 0-1.338-.394-.512-.393-.512-.945v-.039q.315-5.472.315-13.346h-.315q-.236-.04-.315-.04-.709-.039-1.181-.393-.472-.394-.472-.945 0-.197.039-.315.157-.551.787-.945.63-.394 1.418-.472-.04-1.26-.079-3.82v-3.857q-.04-1.93-.354-2.677-.276-.748-1.024-1.063-.394-.118-.512-.158-.55-.157-.55-.59 0-.394.51-.985.513-.63 1.024-1.023l.512-.394q4.173.197 8.819.197 6.181 0 10.433-.394h.315q.787 0 1.299.394.512.354.512.905zm15.974 12.204q-.551-1.574-1.89-2.361-1.338-.827-2.913-.827-.67 0-1.457.197-2.086.59-3.78 2.992-1.653 2.362-1.653 6.732 0 2.56.709 4.528.708 1.968 1.81 3.07 1.143 1.103 2.324 1.654 1.22.551 2.401.551h.236q.158-.04.237-.04 2.204-.236 4.055-2.48 1.89-2.283 1.89-6.692 0-1.536-.552-3.19-.551-1.653-1.023-1.968-.985-.315-.985-1.102 0-.394.197-.63.118-.236.394-.433zm3.543.237q2.283 2.008 2.283 6.693 0 5.157-2.716 8.543-2.677 3.346-7.047 3.819-.787.079-1.22.079-4.489 0-7.441-3.347-2.953-3.346-2.953-8.897 0-5.118 2.283-8.425 2.323-3.307 6.22-4.33 1.418-.395 2.875-.395 2.834 0 5.039 1.418 2.205 1.417 2.953 3.74.04.079.04.275 0 .394-.316.827zm9.182 18.897q-.551 0-.945-.354-.394-.354-.394-.827-.079-17.834-1.535-21.692-.079-.236-.079-.354 0-1.024 1.457-1.496.354-.119.787-.119 1.3 0 1.614.867.748 1.929 1.181 7.677.512-1.772 1.142-3.15.67-1.378 1.732-2.716 1.063-1.378 2.717-2.126 1.693-.748 3.819-.748 1.968 0 3.228.787 1.3.748 1.89 2.244.63 1.496.826 3.07.237 1.536.237 3.78 0 3.032.196 13.346 0 .552-.55 1.063-.552.473-1.34.552h-.314q-.709 0-1.181-.315-.473-.315-.473-.827-.197-10.354-.197-13.425 0-3.976-.826-5.709-.827-1.732-2.048-1.732-4.527 0-6.456 8.858-1.024 4.646-1.378 6.89-.315 2.205-.59 5.472-1.3.984-2.52.984zm27.83-30.117h.197q.118-.04.197-.04.67 0 1.102.315.473.315.512.827.04.551.04 1.693 0 .59-.04 1.693v1.693q2.087 0 5.157-.118h.08q.708 0 1.18.354.473.315.473.827v.157q-.08.552-.71 1.024-.629.433-1.416.472-1.811.08-4.567.08-.04 2.164-.236 7.086-.158 4.881-.158 7.362 0 2.559 1.535 3.661.591.433 1.142.433 1.024 0 2.756-1.26.709-.512 1.575-.512.708 0 1.18.355.473.354.473.866 0 .63-.63 1.102-2.913 2.166-5.984 2.166-2.008 0-3.464-1.024-2.441-1.772-2.441-5.394 0-2.48.197-7.48t.197-7.44q-2.126-.08-3.307-.197-.63-.04-1.063-.394-.394-.354-.394-.827 0-.118.079-.354.196-.551.826-.906.63-.354 1.378-.354h.197q1.536.157 2.441.197 0-.079-.354-4.41v-.039q0-.551.512-1.024.55-.472 1.338-.59z" style="line-height:125%;-inkscape-font-specification:'BoonJot, Normal';text-align:start" font-size="47.243" font-family="BoonJot"/></g></svg>